# xmcd CD database file
#
# Track frame offsets:
#	150
#	29375
#	39142
#	56827
#	68107
#	79465
#	94215
#	110410
#	135242
#	142807
#	167112
#	181195
#
# Disc length: 2636 seconds
#
# Revision: 2
# Processed by: cddbd v1.4b41PL3 Copyright (c) Steve Scherf et al.
# Submitted via: CDex 1.40Beta4
#
DISCID=9a0a4a0c
DTITLE=Edge Of Sanity - Evolution CD2
DYEAR=1900
DGENRE=Blues
TTITLE0=The Masque
TTITLE1=Pernicious Anguish
TTITLE2=Until Eternity Ends
TTITLE3=Song Of Sirens
TTITLE4=Criminally Insane
TTITLE5=Murder Dividead
TTITLE6=I Wanna Go Home
TTITLE7=Damned By The Damned
TTITLE8=Moonshine
TTITLE9=Bleed You Dry
TTITLE10=Mother
TTITLE11=Epidemic Reign
EXTD=ID3G:   0
EXTT0=
EXTT1=
EXTT2=
EXTT3=
EXTT4=
EXTT5=
EXTT6=
EXTT7=
EXTT8=
EXTT9=
EXTT10=
EXTT11=
PLAYORDER=
